<svg width="28" height="22" viewBox="0 0 28 22" fill="none" xmlns="http://www.w3.org/2000/svg">
<path d="M23.9134 0.419922H4.08669C3.20264 0.419922 2.35479 0.771111 1.72967 1.39623C1.10455 2.02135 0.753357 2.8692 0.753357 3.75325V18.2466C0.753357 19.1306 1.10455 19.9785 1.72967 20.6036C2.35479 21.2287 3.20264 21.5799 4.08669 21.5799H23.9134C24.7974 21.5799 25.6453 21.2287 26.2704 20.6036C26.8955 19.9785 27.2467 19.1306 27.2467 18.2466V3.75325C27.2467 2.8692 26.8955 2.02135 26.2704 1.39623C25.6453 0.771111 24.7974 0.419922 23.9134 0.419922ZM4.08669 1.75326H23.9134C24.4179 1.75212 24.9041 1.94303 25.273 2.28723C25.642 2.63143 25.8662 3.10314 25.9 3.60659C22.6067 5.36659 19.3 7.11325 15.9934 8.87325C15.5467 9.15487 15.0733 9.39158 14.58 9.57992C14.1932 9.65651 13.7946 9.64975 13.4106 9.56008C13.0266 9.47041 12.6662 9.2999 12.3534 9.05992C10.46 8.05992 8.56669 7.04659 6.68669 6.04659C5.16669 5.24659 3.62002 4.43326 2.10002 3.61992C2.13063 3.1141 2.35338 2.63909 2.72268 2.29209C3.09199 1.94509 3.57994 1.75233 4.08669 1.75326ZM25.9134 18.2466C25.9134 18.777 25.7026 19.2857 25.3276 19.6608C24.9525 20.0359 24.4438 20.2466 23.9134 20.2466H4.08669C3.55626 20.2466 3.04755 20.0359 2.67248 19.6608C2.2974 19.2857 2.08669 18.777 2.08669 18.2466V5.13325C5.23336 6.78659 8.36669 8.46659 11.5134 10.1333C12.0754 10.4782 12.6807 10.7472 13.3134 10.9333C14.2392 11.084 15.1882 10.8895 15.98 10.3866C17.9134 9.37325 19.8334 8.34659 21.7667 7.33325C23.1534 6.58659 24.5267 5.86659 25.9134 5.13325V18.2466Z" fill="white"/>
</svg>
