<svg width="20" height="20" viewBox="0 0 20 20" fill="none" xmlns="http://www.w3.org/2000/svg">
<g clip-path="url(#clip0_54_603)">
<g clip-path="url(#clip1_54_603)">
<path d="M16.5656 2.1875H3.43777C3.10617 2.1875 2.78816 2.3192 2.55369 2.55362C2.31922 2.78804 2.1875 3.10598 2.1875 3.4375V16.5625C2.1875 16.894 2.31922 17.212 2.55369 17.4464C2.78816 17.6808 3.10617 17.8125 3.43777 17.8125H16.5656C16.8971 17.8125 17.2152 17.6808 17.4496 17.4464C17.6841 17.212 17.8158 16.894 17.8158 16.5625V3.4375C17.8158 3.10598 17.6841 2.78804 17.4496 2.55362C17.2152 2.3192 16.8971 2.1875 16.5656 2.1875ZM7.50113 13.75C7.50113 13.9158 7.43527 14.0747 7.31803 14.1919C7.2008 14.3092 7.04179 14.375 6.876 14.375C6.7102 14.375 6.5512 14.3092 6.43396 14.1919C6.31673 14.0747 6.25086 13.9158 6.25086 13.75V8.75C6.25086 8.58424 6.31673 8.42527 6.43396 8.30806C6.5512 8.19085 6.7102 8.125 6.876 8.125C7.04179 8.125 7.2008 8.19085 7.31803 8.30806C7.43527 8.42527 7.50113 8.58424 7.50113 8.75V13.75ZM6.876 7.1875C6.69054 7.1875 6.50924 7.13252 6.35504 7.0295C6.20083 6.92649 6.08065 6.78007 6.00967 6.60877C5.9387 6.43746 5.92013 6.24896 5.95631 6.0671C5.9925 5.88525 6.0818 5.7182 6.21294 5.58709C6.34408 5.45598 6.51116 5.36669 6.69306 5.33051C6.87496 5.29434 7.0635 5.31291 7.23484 5.38386C7.40618 5.45482 7.55263 5.57498 7.65566 5.72915C7.7587 5.88332 7.81369 6.06458 7.81369 6.25C7.81369 6.49864 7.7149 6.7371 7.53905 6.91291C7.3632 7.08873 7.12469 7.1875 6.876 7.1875ZM14.3776 13.75C14.3776 13.9158 14.3117 14.0747 14.1945 14.1919C14.0773 14.3092 13.9183 14.375 13.7525 14.375C13.5867 14.375 13.4277 14.3092 13.3104 14.1919C13.1932 14.0747 13.1273 13.9158 13.1273 13.75V10.9375C13.1273 10.5231 12.9627 10.1257 12.6696 9.83265C12.3765 9.53962 11.979 9.375 11.5645 9.375C11.15 9.375 10.7525 9.53962 10.4594 9.83265C10.1663 10.1257 10.0017 10.5231 10.0017 10.9375V13.75C10.0017 13.9158 9.9358 14.0747 9.81856 14.1919C9.70133 14.3092 9.54232 14.375 9.37653 14.375C9.21073 14.375 9.05173 14.3092 8.93449 14.1919C8.81726 14.0747 8.75139 13.9158 8.75139 13.75V8.75C8.75096 8.59619 8.80727 8.44762 8.90956 8.33272C9.01184 8.21782 9.15291 8.14467 9.30576 8.12726C9.45862 8.10985 9.61253 8.1494 9.73804 8.23835C9.86355 8.32731 9.95185 8.45941 9.98603 8.60938C10.409 8.32269 10.9021 8.15663 11.4124 8.12901C11.9227 8.10139 12.4309 8.21326 12.8823 8.4526C13.3338 8.69195 13.7116 9.04973 13.975 9.48752C14.2384 9.92532 14.3776 10.4266 14.3776 10.9375V13.75Z" fill="white"/>
</g>
</g>
<defs>
<clipPath id="clip0_54_603">
<rect width="20" height="20" fill="white"/>
</clipPath>
<clipPath id="clip1_54_603">
<rect width="20" height="20" fill="white"/>
</clipPath>
</defs>
</svg>
