<svg width="20" height="20" viewBox="0 0 20 20" fill="none" xmlns="http://www.w3.org/2000/svg">
<g clip-path="url(#clip0_54_592)">
<g clip-path="url(#clip1_54_592)">
<path d="M10.0017 12.5C11.3827 12.5 12.5022 11.3807 12.5022 10C12.5022 8.61929 11.3827 7.5 10.0017 7.5C8.62065 7.5 7.50113 8.61929 7.50113 10C7.50113 11.3807 8.62065 12.5 10.0017 12.5Z" fill="white"/>
<path d="M13.4399 2.1875H6.56343C5.40286 2.1875 4.28983 2.64844 3.46918 3.46891C2.64853 4.28938 2.1875 5.40218 2.1875 6.5625V13.4375C2.1875 14.5978 2.64853 15.7106 3.46918 16.5311C4.28983 17.3516 5.40286 17.8125 6.56343 17.8125H13.4399C14.6005 17.8125 15.7135 17.3516 16.5341 16.5311C17.3548 15.7106 17.8158 14.5978 17.8158 13.4375V6.5625C17.8158 5.40218 17.3548 4.28938 16.5341 3.46891C15.7135 2.64844 14.6005 2.1875 13.4399 2.1875ZM10.0017 13.75C9.25982 13.75 8.53464 13.5301 7.91783 13.118C7.30101 12.706 6.82026 12.1203 6.53638 11.4351C6.25249 10.7498 6.17821 9.99584 6.32293 9.26841C6.46766 8.54098 6.82489 7.8728 7.34945 7.34835C7.874 6.8239 8.54233 6.46675 9.26992 6.32206C9.9975 6.17736 10.7517 6.25162 11.437 6.53545C12.1224 6.81928 12.7082 7.29993 13.1203 7.91661C13.5325 8.5333 13.7525 9.25832 13.7525 10C13.7525 10.9946 13.3573 11.9484 12.6539 12.6517C11.9505 13.3549 10.9964 13.75 10.0017 13.75ZM14.065 6.875C13.8796 6.875 13.6983 6.82002 13.5441 6.717C13.3899 6.61399 13.2697 6.46757 13.1987 6.29627C13.1277 6.12496 13.1092 5.93646 13.1453 5.7546C13.1815 5.57275 13.2708 5.4057 13.402 5.27459C13.5331 5.14348 13.7002 5.05419 13.8821 5.01801C14.064 4.98184 14.2525 5.00041 14.4239 5.07136C14.5952 5.14232 14.7417 5.26248 14.8447 5.41665C14.9477 5.57082 15.0027 5.75208 15.0027 5.9375C15.0027 6.18614 14.9039 6.4246 14.7281 6.60041C14.5522 6.77623 14.3137 6.875 14.065 6.875Z" fill="white"/>
</g>
</g>
<defs>
<clipPath id="clip0_54_592">
<rect width="20" height="20" fill="white"/>
</clipPath>
<clipPath id="clip1_54_592">
<rect width="20" height="20" fill="white"/>
</clipPath>
</defs>
</svg>
