<svg width="24" height="28" viewBox="0 0 24 28" fill="none" xmlns="http://www.w3.org/2000/svg">
<path d="M12 0.571289C14.9553 0.571289 17.7895 1.74527 19.8792 3.83496C21.9689 5.92465 23.1429 8.75888 23.1429 11.7141C23.1429 16.4227 19.8343 21.5541 13.3029 27.1633C12.9397 27.4753 12.4767 27.6466 11.9979 27.6462C11.5191 27.6458 11.0564 27.4736 10.6938 27.161L10.2617 26.7861C4.01946 21.3233 0.857178 16.3176 0.857178 11.7141C0.857178 8.75888 2.03115 5.92465 4.12085 3.83496C6.21054 1.74527 9.04477 0.571289 12 0.571289ZM12 2.28557C9.49942 2.28557 7.10123 3.27894 5.33303 5.04714C3.56483 6.81534 2.57146 9.21353 2.57146 11.7141C2.57146 15.7164 5.48346 20.3279 11.3875 25.4936L11.8137 25.8627C11.8656 25.9073 11.9317 25.9318 12 25.9318C12.0684 25.9318 12.1345 25.9073 12.1863 25.8627C18.376 20.5461 21.4286 15.8113 21.4286 11.7141C21.4286 10.476 21.1847 9.24992 20.7109 8.10599C20.2371 6.96206 19.5426 5.92266 18.667 5.04714C17.7915 4.17162 16.7521 3.47711 15.6082 3.00328C14.4643 2.52945 13.2382 2.28557 12 2.28557ZM12 7.42843C13.1367 7.42843 14.2268 7.87996 15.0305 8.68369C15.8342 9.48742 16.2857 10.5775 16.2857 11.7141C16.2857 12.8508 15.8342 13.9409 15.0305 14.7446C14.2268 15.5483 13.1367 15.9999 12 15.9999C10.8634 15.9999 9.7733 15.5483 8.96958 14.7446C8.16585 13.9409 7.71432 12.8508 7.71432 11.7141C7.71432 10.5775 8.16585 9.48742 8.96958 8.68369C9.7733 7.87996 10.8634 7.42843 12 7.42843ZM12 9.14272C11.3181 9.14272 10.664 9.41364 10.1818 9.89587C9.69952 10.3781 9.42861 11.0322 9.42861 11.7141C9.42861 12.3961 9.69952 13.0502 10.1818 13.5324C10.664 14.0147 11.3181 14.2856 12 14.2856C12.682 14.2856 13.3361 14.0147 13.8183 13.5324C14.3005 13.0502 14.5715 12.3961 14.5715 11.7141C14.5715 11.0322 14.3005 10.3781 13.8183 9.89587C13.3361 9.41364 12.682 9.14272 12 9.14272Z" fill="white"/>
</svg>
