<svg width="20" height="20" viewBox="0 0 20 20" fill="none" xmlns="http://www.w3.org/2000/svg">
<g clip-path="url(#clip0_54_598)">
<g clip-path="url(#clip1_54_598)">
<path d="M19.1976 6.07039L16.8378 8.42195C16.3689 13.8829 11.7586 18.1251 6.24958 18.1251C5.11653 18.1251 4.17883 17.9454 3.46774 17.5938C2.89731 17.3048 2.66288 17.0001 2.60037 16.9063C2.54865 16.8278 2.51532 16.7386 2.50287 16.6454C2.49042 16.5522 2.49916 16.4573 2.52845 16.368C2.55775 16.2786 2.60683 16.197 2.67205 16.1293C2.73726 16.0615 2.81693 16.0093 2.90512 15.9766C2.92075 15.9688 4.76489 15.2657 5.96046 13.9141C5.21901 13.3863 4.56731 12.7427 4.03036 12.0079C2.95982 10.5548 1.82677 8.03132 2.5066 4.2657C2.52797 4.15375 2.57918 4.04965 2.65483 3.96439C2.73048 3.87913 2.82775 3.81589 2.93638 3.78132C3.04535 3.74565 3.16204 3.74063 3.27367 3.76681C3.3853 3.79299 3.48759 3.84936 3.56933 3.92976C3.59277 3.96101 6.19488 6.52351 9.37525 7.35164V6.87507C9.37831 6.37954 9.47898 5.88945 9.67149 5.43281C9.86401 4.97617 10.1446 4.56191 10.4972 4.21369C10.8499 3.86547 11.2677 3.59011 11.7268 3.40332C12.1859 3.21653 12.6773 3.12199 13.1729 3.12507C13.8234 3.13435 14.4605 3.31193 15.0219 3.64053C15.5834 3.96912 16.0502 4.43751 16.3767 5.00007H18.7522C18.8757 4.99969 18.9964 5.03583 19.0993 5.10396C19.2022 5.17208 19.2827 5.26913 19.3305 5.38289C19.3755 5.49833 19.3869 5.62416 19.3634 5.74583C19.3399 5.8675 19.2825 5.98002 19.1976 6.07039Z" fill="white"/>
</g>
</g>
<defs>
<clipPath id="clip0_54_598">
<rect width="20" height="20" fill="white"/>
</clipPath>
<clipPath id="clip1_54_598">
<rect width="20" height="20" fill="white"/>
</clipPath>
</defs>
</svg>
